REM MD5 bbf1e2f8817a57ec23f15698bb129bf0
FILE "Hyper PlayStation Re-mix No. 3 (Japan).bin" BINARY
  TRACK 01 MODE2/2352
    INDEX 01 00:00:00
  TRACK 02 AUDIO
    INDEX 00 46:44:05
    INDEX 01 46:47:05
  TRACK 03 AUDIO
    INDEX 00 51:39:02
    INDEX 01 51:42:02
REM LEADOUT 56:07:46
